<?xml version="1.0" standalone="no"?>
<!DOCTYPE svg PUBLIC "-//W3C//DTD SVG 20010904//EN"
 "http://www.w3.org/TR/2001/REC-SVG-20010904/DTD/svg10.dtd">
<svg version="1.0" xmlns="http://www.w3.org/2000/svg"
 width="1024.000000pt" height="1024.000000pt" viewBox="0 0 1024.000000 1024.000000"
 preserveAspectRatio="xMidYMid meet">
<metadata>
Created by potrace 1.16, written by Peter Selinger 2001-2019
</metadata>
<g transform="translate(0.000000,1024.000000) scale(0.100000,-0.100000)"
fill="#000000" stroke="none">
<path d="M0 5120 l0 -5120 5120 0 5120 0 0 5120 0 5120 -5120 0 -5120 0 0
-5120z m6665 4065 c28 -4 55 -10 60 -15 6 -4 32 -11 59 -15 l48 -7 -6 -61 c-6
-53 11 -231 29 -312 4 -18 20 -23 115 -39 l110 -18 1 -112 c1 -110 0 -148 -6
-154 -2 -2 -29 -5 -61 -7 -42 -3 -52 -2 -34 4 21 8 22 9 5 10 -129 9 -176 14
-270 30 -60 11 -111 18 -113 16 -12 -12 15 -25 49 -25 21 0 85 -7 142 -16 56
-8 114 -16 130 -16 27 -1 37 -13 16 -20 -20 -7 -18 -21 66 -753 13 -115 29
-273 35 -350 6 -77 18 -204 25 -282 8 -78 15 -199 15 -268 l0 -125 63 0 c85
-1 291 -11 296 -16 2 -2 0 -97 -5 -211 l-9 -208 -132 -10 -132 -10 133 -375
c72 -206 183 -523 246 -703 113 -324 115 -328 125 -288 5 22 13 43 17 47 11
10 80 6 87 -5 8 -13 238 -44 253 -35 13 8 79 7 87 -1 7 -8 0 -139 -9 -150 -4
-5 -11 -119 -15 -251 l-7 -242 73 -11 c41 -7 86 -14 102 -17 l27 -6 0 -93 0
-93 -67 -15 c-38 -9 -82 -19 -99 -22 -37 -7 -44 -24 -44 -105 l0 -56 203 -38
c111 -21 232 -45 270 -53 l67 -15 0 -93 c0 -88 1 -93 23 -99 21 -5 22 -9 19
-78 -2 -40 -7 -76 -11 -80 -5 -6 -313 -103 -453 -143 l-58 -16 0 -97 c0 -53
-3 -134 -6 -178 -8 -91 -15 -81 74 -104 l43 -11 -2 -112 c-1 -62 -5 -121 -9
-132 -5 -14 -27 -27 -64 -38 l-56 -18 0 -73 c0 -43 5 -77 12 -84 17 -17 3 -28
-62 -50 -30 -10 -55 -23 -57 -29 -2 -5 23 -45 55 -89 121 -163 113 -142 114
-310 1 -98 -3 -149 -10 -152 -6 -2 -23 3 -38 11 -30 16 -63 9 -133 -27 -26
-14 -30 -21 -25 -41 5 -19 2 -25 -9 -25 -43 0 -70 25 -139 126 -144 210 -138
202 -135 168 2 -25 -2 -29 -25 -32 l-28 -3 0 69 c0 67 -2 73 -40 121 -23 29
-45 49 -50 46 -6 -4 -10 -46 -10 -94 0 -48 -3 -123 -7 -165 -6 -76 -6 -77 -32
-74 l-26 3 -3 177 -2 176 -30 11 c-36 12 -40 43 -8 65 12 9 20 16 17 16 -5 0
-162 47 -244 73 -19 6 -20 1 -24 -143 -3 -135 -2 -150 14 -150 10 0 15 -6 13
-17 -2 -11 -29 -27 -73 -44 l-70 -26 -80 27 c-49 18 -81 34 -83 44 -2 9 3 16
11 16 11 0 15 31 21 156 3 87 5 159 3 161 -2 2 -60 -16 -128 -40 l-124 -44 -3
-223 c-2 -197 0 -225 14 -242 10 -10 15 -20 13 -23 -3 -2 -39 -16 -81 -31
l-75 -27 -74 28 c-89 33 -100 42 -76 59 15 12 17 33 17 184 l0 171 -62 19
c-60 19 -82 37 -61 51 6 3 14 75 18 159 6 126 5 153 -7 150 -7 -1 -43 6 -80
17 -63 18 -82 35 -58 50 11 7 14 95 3 95 -4 0 -44 -12 -90 -27 l-83 -27 0 -97
c0 -68 4 -99 13 -103 8 -4 5 -10 -10 -22 -22 -16 -23 -22 -23 -192 0 -155 2
-176 18 -188 23 -17 11 -27 -70 -53 l-67 -22 -76 27 c-81 29 -97 41 -71 56 14
8 16 32 16 188 0 98 -4 181 -8 184 -5 3 -6 43 -4 90 l4 84 -133 -42 c-74 -24
-150 -47 -169 -52 l-35 -10 -3 -108 c-2 -90 0 -112 14 -127 16 -18 15 -20 -19
-34 -93 -39 -117 -40 -192 -10 -38 15 -73 34 -78 41 -5 9 -16 10 -36 4 -22 -6
-46 -2 -93 15 -57 21 -63 26 -60 49 1 14 0 26 -4 26 -3 0 -74 -21 -157 -46
-84 -25 -160 -47 -169 -50 -14 -4 -18 -20 -20 -81 l-3 -75 -62 -19 -62 -19
-58 23 c-54 22 -58 26 -58 55 0 18 -4 32 -10 32 -5 0 -89 -24 -185 -53 l-175
-53 -1 -74 -1 -75 -66 -22 -67 -23 -56 27 c-53 26 -55 30 -52 60 2 19 -1 33
-7 33 -5 0 -104 -29 -220 -64 l-210 -63 -1 -79 -2 -79 -72 -22 -73 -22 -59 30
c-56 28 -59 32 -53 59 5 22 3 30 -7 30 -7 0 -112 -29 -233 -65 -120 -36 -220
-65 -223 -65 -2 0 -2 -38 0 -84 l3 -84 -83 -26 -84 -26 -44 26 c-24 14 -42 30
-38 35 3 5 -1 6 -9 3 -9 -3 -15 0 -14 8 2 45 -4 69 -15 65 -30 -10 -48 13 -48
61 l0 47 -98 51 -97 52 -75 -24 -74 -23 -53 30 -53 30 0 52 c0 85 -6 93 -88
138 l-75 42 -66 -16 c-36 -8 -69 -13 -73 -11 -12 8 -10 108 3 121 7 7 7 87 0
274 -6 145 -11 289 -11 319 l0 55 258 58 c141 32 392 88 558 124 l301 66 64
-26 64 -26 3 42 3 42 97 22 c53 12 273 61 487 108 l390 86 51 -15 c65 -21 62
-21 66 16 3 29 7 33 43 40 22 4 150 32 285 62 262 58 257 55 152 87 -49 14
-55 28 -50 110 3 47 6 54 26 57 21 3 22 8 22 92 0 76 3 89 18 94 23 6 338 70
777 156 198 39 368 74 378 76 15 5 18 14 15 47 -3 42 -2 42 32 42 32 0 35 -3
38 -32 5 -49 22 -40 22 12 0 45 0 45 35 45 34 0 35 -1 35 -39 l0 -38 78 18
c42 10 87 19 98 19 25 0 27 5 49 195 30 256 58 591 80 955 8 135 19 326 25
425 13 219 28 549 25 553 -2 2 -64 6 -139 10 -75 4 -136 10 -136 15 0 4 0 99
0 212 l0 205 84 0 c45 0 110 3 143 6 l60 7 7 121 c16 272 89 914 155 1351 29
189 36 281 22 289 -6 4 -44 13 -84 20 l-72 12 4 129 c2 72 5 133 7 137 2 3 51
12 108 18 57 7 109 16 115 19 16 10 44 195 45 301 l1 95 80 15 c44 8 85 18 90
21 6 3 30 7 55 8 25 2 47 5 49 7 2 2 13 2 25 -1 12 -2 44 -7 71 -10z m3034
-8422 c29 -81 123 -173 192 -188 39 -9 37 -18 -8 -34 -81 -29 -173 -123 -188
-192 -9 -39 -18 -37 -34 9 -29 80 -123 172 -192 187 -39 9 -37 18 9 34 80 29
172 123 187 192 9 39 18 37 34 -8z"/>
<path d="M6558 8118 c0 -161 -2 -401 -3 -533 -1 -132 2 -251 6 -265 4 -14 8
185 8 441 1 256 4 507 7 557 5 67 4 92 -5 92 -8 0 -11 -80 -13 -292z"/>
<path d="M6256 8299 c-5 -18 -35 -253 -33 -256 2 -1 33 32 69 74 74 85 74 74
6 153 -25 29 -39 38 -42 29z"/>
<path d="M6316 8063 l-80 -88 50 -3 c27 -2 82 -1 122 3 l72 7 0 38 c0 31 -8
47 -43 85 l-42 47 -79 -89z"/>
<path d="M6286 7816 c38 -42 70 -76 72 -76 8 0 122 114 122 121 0 10 -42 17
-164 24 l-99 6 69 -75z"/>
<path d="M6649 7825 c5 -11 40 -53 77 -94 l68 -74 -2 -66 c-2 -36 0 -83 3
-103 l7 -38 59 0 c32 0 59 3 59 6 0 4 -28 37 -61 75 -34 39 -60 72 -57 74 3 3
28 -22 57 -55 29 -33 59 -60 67 -60 22 0 17 13 -21 50 -19 19 -35 30 -35 25 0
-12 -50 36 -62 60 -7 12 4 7 28 -15 l38 -35 -45 55 c-24 30 -60 71 -79 90 -20
19 -53 55 -74 80 -20 25 -33 36 -27 25z"/>
<path d="M6842 7779 c-48 -59 -50 -64 -37 -88 16 -30 125 -164 130 -159 5 5
-32 298 -38 304 -3 3 -28 -23 -55 -57z"/>
<path d="M6186 7800 c-14 -79 -36 -241 -36 -262 0 -19 13 -10 76 52 41 41 80
83 85 93 8 15 -1 30 -55 85 l-64 66 -6 -34z"/>
<path d="M6257 7545 l-98 -105 49 0 c27 0 97 3 155 7 l107 6 0 41 c0 36 -7 48
-56 99 -31 31 -57 57 -57 57 -1 0 -46 -47 -100 -105z"/>
<path d="M6200 7324 c24 -27 92 -100 150 -162 l105 -114 7 54 c3 29 6 99 7
156 l1 102 -42 0 c-24 0 -95 3 -158 7 l-115 6 45 -49z"/>
<path d="M6620 7198 l1 -163 39 45 c44 50 45 54 33 198 l-6 82 -33 0 -34 0 0
-162z"/>
<path d="M6876 7213 l-78 -95 7 -119 7 -119 95 0 95 0 -6 28 c-2 15 -10 104
-16 197 -7 94 -15 177 -18 186 -5 12 -26 -7 -86 -78z"/>
<path d="M6106 7138 c-10 -90 -21 -187 -23 -215 l-5 -53 186 0 c102 0 186 2
186 5 0 9 -313 425 -320 425 -3 0 -14 -73 -24 -162z"/>
<path d="M6096 6808 c4 -7 32 -46 62 -86 l55 -73 121 3 121 3 3 74 c2 53 -1
77 -10 82 -7 5 -91 9 -186 9 -136 0 -172 -3 -166 -12z"/>
<path d="M6810 6741 l0 -79 68 -4 c37 -2 80 -2 95 0 l28 3 -3 77 -3 77 -92 3
-93 3 0 -80z"/>
<path d="M5738 6623 l-28 -4 0 -163 0 -164 83 -6 c69 -5 361 -17 745 -30 l92
-3 0 178 0 177 -112 1 c-62 1 -167 4 -233 6 -208 7 -519 12 -547 8z"/>
<path d="M6977 6618 c-154 -3 -282 -9 -285 -13 -4 -4 -9 -84 -10 -179 l-4
-171 114 3 c62 3 116 9 119 14 4 6 8 6 10 2 2 -5 110 -5 246 0 l241 9 6 30 c3
16 6 93 6 171 l0 141 -82 0 c-46 0 -208 -3 -361 -7z"/>
<path d="M5710 6252 c0 -23 19 -25 460 -43 140 -5 301 -12 358 -15 97 -4 102
-3 102 16 0 25 -37 27 -43 3 -4 -17 -5 -17 -6 0 0 9 -4 17 -8 18 -18 3 -143 9
-388 19 -143 5 -308 13 -367 16 -103 6 -108 5 -108 -14z"/>
<path d="M7327 6263 c-1 0 -128 -6 -282 -13 -154 -6 -296 -13 -315 -15 -19 -2
-38 -4 -42 -4 -5 -1 -8 -10 -8 -21 0 -16 5 -19 23 -16 12 3 94 7 182 11 473
16 525 21 525 44 0 13 -9 17 -41 16 -22 0 -41 -1 -42 -2z"/>
<path d="M5986 6018 c-3 -101 -11 -248 -16 -328 -6 -80 -22 -323 -36 -540 -31
-488 -58 -793 -88 -993 -9 -61 -10 -87 -2 -84 6 2 12 26 13 53 1 27 7 69 12
94 6 25 16 95 22 155 6 61 13 124 16 140 2 17 6 82 8 145 3 63 10 162 16 220
6 58 12 150 15 205 2 55 6 114 8 130 3 17 7 82 11 145 3 63 8 134 10 157 17
175 35 667 24 677 -3 4 -9 -76 -13 -176z"/>
<path d="M6066 6088 c-3 -57 -8 -156 -11 -220 l-6 -118 31 0 c17 0 33 6 35 13
2 6 11 86 19 176 l16 164 -36 44 c-19 24 -37 43 -39 43 -2 0 -6 -46 -9 -102z"/>
<path d="M6941 6166 c-22 -23 -23 -28 -16 -133 7 -108 8 -109 46 -153 l38 -45
-1 105 c-2 235 -15 281 -67 226z"/>
<path d="M7114 6165 c3 -16 17 -91 31 -165 31 -165 164 -947 235 -1389 l53
-323 41 6 c22 4 43 11 46 17 4 5 33 93 65 195 l59 185 -31 92 c-49 147 -356
1026 -422 1209 -62 174 -87 229 -77 173z"/>
<path d="M6564 5928 c4 -134 8 -398 11 -587 2 -189 7 -346 11 -350 4 -3 4 192
0 434 -3 242 -6 509 -6 593 0 103 -4 152 -11 152 -8 0 -9 -71 -5 -242z"/>
<path d="M6692 5951 l-63 -58 7 -59 c4 -32 7 -60 8 -60 1 -1 40 -4 89 -5 l87
-4 0 101 c0 92 -2 102 -23 122 -13 12 -27 22 -33 22 -5 0 -37 -26 -72 -59z"/>
<path d="M7106 5890 c3 -63 11 -297 19 -520 13 -373 17 -423 50 -630 19 -124
44 -295 55 -380 28 -210 34 -224 59 -152 19 51 29 62 62 62 15 0 30 4 33 9 9
14 -89 633 -203 1281 -87 494 -80 463 -75 330z"/>
<path d="M6357 5509 c-17 -138 -17 -142 3 -168 10 -15 26 -33 34 -40 18 -15
22 13 31 203 7 134 4 145 -36 146 -13 0 -19 -26 -32 -141z"/>
<path d="M6697 5640 c-27 -5 -51 -11 -53 -13 -3 -2 -3 -57 -2 -121 l3 -116 93
76 92 75 0 55 0 54 -42 -1 c-24 -1 -65 -5 -91 -9z"/>
<path d="M6507 5558 c-10 -119 -8 -298 1 -298 5 0 16 8 25 18 14 16 17 45 17
190 0 161 -1 172 -19 172 -16 0 -19 -11 -24 -82z"/>
<path d="M6037 5548 c-4 -29 -9 -111 -12 -183 -3 -71 -8 -154 -11 -183 -5 -52
-5 -53 18 -50 22 3 24 9 40 158 26 245 26 257 -4 287 l-25 25 -6 -54z"/>
<path d="M6994 5558 c-56 -61 -56 -63 -48 -258 l7 -180 28 0 c15 0 35 -3 44
-6 15 -6 16 9 10 192 -4 109 -10 216 -14 237 l-6 39 -21 -24z"/>
<path d="M6733 5391 l-93 -72 0 -82 c1 -95 -11 -102 113 67 58 80 77 114 75
133 -3 25 -6 23 -95 -46z"/>
<path d="M6306 4988 c-2 -12 -9 -67 -15 -121 l-11 -98 52 -61 c50 -57 53 -59
59 -37 4 13 7 93 8 177 l1 152 -29 0 c-16 0 -36 3 -45 6 -10 4 -17 -1 -20 -18z"/>
<path d="M6746 4993 c-49 -7 -91 -14 -93 -16 -2 -3 -2 -54 -1 -115 l3 -110 80
60 c44 33 88 66 97 72 15 11 17 21 10 67 l-7 55 -89 -13z"/>
<path d="M6478 4798 c-3 -101 -3 -185 -1 -187 2 -3 20 9 41 26 l37 30 3 157 3
156 -40 0 -39 0 -4 -182z"/>
<path d="M5981 4788 c-6 -101 -15 -216 -18 -256 -5 -62 -4 -72 9 -67 17 7 20
24 43 293 12 138 12 176 3 192 -7 11 -15 20 -19 20 -3 0 -11 -82 -18 -182z"/>
<path d="M7005 4876 l-40 -59 3 -176 c2 -97 7 -179 11 -183 4 -4 27 -11 52
-14 l44 -6 -12 228 c-7 126 -14 238 -15 249 -3 15 -12 7 -43 -39z"/>
<path d="M6743 4750 l-93 -71 0 -83 c0 -83 5 -96 40 -96 5 0 43 55 84 122 60
96 76 130 76 160 0 21 -3 38 -7 38 -5 0 -50 -32 -100 -70z"/>
<path d="M7757 4703 c-4 -3 -7 -49 -7 -102 0 -85 4 -108 37 -199 29 -84 41
-106 61 -113 14 -5 26 -8 27 -7 5 6 115 382 115 393 0 7 -38 16 -97 23 -112
14 -127 15 -136 5z"/>
<path d="M8026 4572 c-10 -42 -34 -124 -52 -182 -19 -58 -34 -111 -34 -117 0
-7 12 -13 26 -13 14 0 34 -5 44 -10 16 -9 20 -7 24 12 4 21 16 388 13 388 -1
0 -11 -35 -21 -78z"/>
<path d="M7670 4576 c0 -8 -16 -67 -35 -132 -20 -64 -35 -118 -33 -119 2 -1
24 -5 49 -7 l46 -5 6 96 c6 94 -6 181 -24 181 -5 0 -9 -6 -9 -14z"/>
<path d="M7013 4333 l-33 -4 0 -59 c0 -80 33 -150 69 -150 50 0 53 8 44 116
-9 109 -7 106 -80 97z"/>
<path d="M7586 4295 c-9 -9 -16 -21 -16 -26 0 -6 -4 -7 -10 -4 -5 3 -10 1 -10
-4 0 -6 -9 -11 -20 -11 -11 0 -20 7 -20 15 0 8 -6 15 -13 15 -8 0 -13 -10 -13
-22 1 -21 9 -24 101 -40 86 -14 101 -15 108 -2 4 8 15 14 23 14 8 0 13 -4 10
-9 -5 -7 72 -4 82 4 1 1 -2 14 -7 29 -8 20 -17 26 -41 26 -27 0 -30 -3 -25
-20 5 -16 2 -20 -15 -20 -18 0 -21 4 -16 24 7 29 4 32 -55 40 -36 5 -50 3 -63
-9z"/>
<path d="M6775 4280 c-22 -3 -46 -9 -53 -14 -29 -18 -67 -125 -44 -126 4 -1
26 -5 49 -9 l42 -8 27 79 c14 44 24 80 23 82 -2 1 -22 -1 -44 -4z"/>
<path d="M7313 4221 c3 -11 2 -21 -2 -21 -8 0 -41 -91 -41 -114 0 -10 6 -13
15 -10 8 4 15 1 15 -5 0 -6 -9 -11 -20 -11 -17 0 -20 -7 -20 -40 0 -38 1 -40
32 -40 33 0 29 -13 -7 -24 -11 -3 4 -4 33 -2 35 2 58 -1 67 -10 19 -19 65 -18
65 1 0 8 5 15 11 15 5 0 8 -4 5 -8 -11 -18 14 -33 65 -39 l54 -5 0 61 c0 34 5
65 11 69 12 8 59 141 52 148 -3 2 -30 5 -61 7 -31 1 -57 5 -57 8 0 5 -85 21
-189 37 -31 4 -33 3 -28 -17z"/>
<path d="M6462 3983 c-7 -10 -10 -12 -6 -4 6 11 2 13 -17 8 -13 -4 -31 -7 -39
-7 -13 0 -13 -2 0 -11 12 -9 12 -10 -4 -5 -10 4 -34 3 -54 0 -46 -9 -27 -19
70 -35 68 -11 86 -11 150 4 40 10 82 17 92 17 36 0 7 12 -71 31 -97 23 -105
23 -121 2z"/>
<path d="M6250 3703 c-1 -114 -2 -221 -3 -237 -2 -29 -1 -30 100 -57 l101 -27
4 71 c2 40 5 149 6 244 l3 171 -68 15 c-37 9 -85 19 -105 22 l-37 7 -1 -209z"/>
<path d="M6591 3889 c-46 -10 -85 -20 -86 -21 -2 -2 -5 -111 -7 -244 l-3 -241
105 27 105 27 5 219 c3 121 3 227 1 237 -4 21 -13 20 -120 -4z"/>
<path d="M5713 3882 c-74 -20 -83 -27 -57 -48 18 -14 15 -15 -34 -11 -36 3
-51 1 -49 -7 4 -11 47 -11 95 -1 20 5 22 2 22 -31 0 -23 7 -42 18 -51 16 -14
16 -14 0 -9 -16 5 -18 -3 -16 -87 1 -51 3 -73 5 -50 4 39 7 43 37 49 33 6 33
6 40 77 4 40 11 98 15 130 8 64 12 62 -76 39z"/>
<path d="M6097 3893 c-4 -3 -7 -56 -7 -116 0 -109 0 -109 23 -103 12 3 30 6
40 6 15 0 17 12 17 110 l0 110 -33 0 c-19 0 -37 -3 -40 -7z"/>
<path d="M7488 3869 l-27 -10 18 -42 c10 -23 37 -97 61 -164 l43 -123 33 0 33
0 3 160 c3 157 3 160 -18 160 -12 0 -27 7 -34 15 -14 17 -71 19 -112 4z"/>
<path d="M7393 3836 c-18 -5 -33 -14 -33 -18 0 -5 11 -34 24 -66 13 -31 33
-87 46 -125 13 -41 26 -65 32 -61 7 4 8 2 4 -5 -9 -13 31 -141 44 -141 19 0
40 13 34 21 -3 5 0 9 5 9 25 0 9 -28 -21 -38 l-33 -12 39 5 c65 7 65 13 17
153 -59 175 -104 285 -116 287 -5 1 -25 -3 -42 -9z"/>
<path d="M7764 3812 l-61 -15 -8 -124 c-3 -69 -5 -127 -3 -129 5 -4 146 31
153 38 2 1 5 58 7 126 3 138 11 129 -88 104z"/>
<path d="M5300 3697 l0 -115 30 -11 c17 -5 30 -13 30 -16 0 -4 -13 -4 -30 0
-18 4 -30 2 -30 -3 0 -10 58 -28 65 -20 2 2 7 63 11 136 l7 132 -26 0 c-14 0
-32 3 -41 6 -14 5 -16 -8 -16 -109z"/>
<path d="M5618 3777 l-48 -9 0 -115 0 -116 47 7 c25 3 48 8 50 10 2 2 2 55 1
117 l-3 114 -47 -8z"/>
<path d="M5055 3739 c-99 -22 -227 -50 -285 -62 l-105 -24 115 -27 c63 -15
250 -61 415 -101 281 -69 479 -115 497 -115 15 0 8 63 -8 75 -13 9 -31 8 -81
-3 -59 -13 -70 -13 -146 6 -45 11 -103 24 -129 27 l-48 7 -1 42 c0 36 -2 81
-8 189 -1 34 7 34 -216 -14z"/>
<path d="M6953 3763 c3 -5 -20 -8 -52 -9 -31 0 -82 -8 -113 -18 l-58 -17 -1
-182 c-1 -100 -3 -200 -4 -222 -4 -46 5 -55 55 -55 49 1 240 56 215 62 -14 4
-15 6 -4 7 21 1 25 32 28 239 2 110 -1 162 -8 162 -13 0 -10 22 4 32 6 4 -7 8
-28 8 -21 0 -36 -3 -34 -7z"/>
<path d="M7070 3568 c0 -87 -4 -158 -8 -158 -4 0 -7 18 -6 40 1 22 -3 43 -8
46 -5 3 -8 -33 -7 -84 l1 -90 30 9 c17 4 33 11 37 15 3 3 6 74 6 157 0 140 -2
155 -22 187 l-23 35 0 -157z"/>
<path d="M7144 3455 l2 -149 24 -7 c41 -11 50 -10 50 9 0 14 3 13 18 -6 16
-20 91 -56 100 -47 2 2 -6 22 -18 45 l-21 42 -46 -7 c-45 -7 -46 -6 -41 20 4
16 -1 32 -11 42 -11 12 -16 35 -16 80 0 36 -4 62 -10 60 -6 -1 -9 -5 -7 -9 1
-5 -2 -8 -7 -8 -6 0 -12 19 -14 43 -2 23 -3 -25 -3 -108z"/>
<path d="M5722 3494 l3 -97 70 -17 71 -16 -1 95 0 94 -50 12 c-27 6 -60 15
-73 19 l-23 8 3 -98z"/>
<path d="M7995 3564 c-27 -10 -57 -14 -91 -10 -33 4 -71 0 -115 -13 -35 -10
-94 -24 -131 -30 l-66 -13 12 -36 c11 -31 19 -38 47 -43 19 -4 28 -7 20 -8 -8
0 -12 -3 -10 -6 3 -2 126 29 274 69 267 73 270 74 229 85 -73 20 -127 21 -169
5z"/>
<path d="M4242 3499 l3 -62 74 -25 74 -25 112 23 c123 24 99 26 310 -31 137
-38 139 -39 134 -44 -5 -5 -326 -85 -560 -139 -251 -59 -229 -49 -229 -105 0
-46 2 -50 32 -60 36 -13 41 -11 41 24 0 20 6 27 36 34 20 6 200 51 401 101
201 49 374 94 386 99 14 6 71 -5 200 -40 230 -62 224 -59 224 -108 0 -35 3
-40 31 -50 45 -16 67 -14 72 7 4 13 5 12 6 -5 1 -17 12 -25 56 -37 30 -9 61
-19 70 -22 12 -5 15 5 16 62 1 38 3 61 6 52 2 -10 11 -18 19 -18 8 0 14 -5 14
-11 0 -6 -7 -8 -16 -5 -12 5 -15 -2 -12 -41 3 -45 4 -46 48 -59 25 -8 51 -12
58 -9 6 2 12 1 12 -4 0 -5 16 -12 36 -15 19 -4 42 -10 50 -13 9 -3 14 2 15 18
l1 24 7 -25 c6 -23 22 -29 156 -67 168 -47 185 -49 185 -28 0 8 5 15 11 15 6
0 8 -8 4 -19 -5 -15 2 -20 39 -30 61 -15 66 -14 66 10 0 11 4 18 9 15 5 -3 7
-15 4 -25 -4 -16 3 -22 39 -31 23 -6 49 -13 56 -15 6 -2 13 2 13 10 3 28 4 33
12 41 4 4 7 -9 7 -28 0 -31 4 -36 28 -41 15 -3 35 -9 44 -12 13 -5 18 2 23 39
6 39 11 46 29 45 17 -1 17 -2 4 -6 -14 -3 -18 -15 -18 -48 0 -41 1 -43 36 -49
19 -4 42 -10 50 -13 11 -4 14 8 14 66 0 80 -5 85 -72 85 -21 0 -38 5 -38 9 0
5 -7 6 -16 3 -10 -4 -13 -2 -8 6 5 8 -1 9 -20 4 -16 -4 -25 -3 -22 2 3 6 -3
12 -14 15 -13 3 -20 0 -20 -9 0 -8 5 -14 10 -14 18 0 11 -20 -7 -21 -15 0 -15
-2 2 -9 28 -12 37 -12 30 0 -3 6 5 10 18 10 16 0 26 -7 30 -20 6 -25 -8 -26
-22 -2 -10 16 -10 16 -11 0 0 -15 -4 -16 -37 -4 -21 7 -43 11 -50 9 -17 -6
-23 10 -7 25 7 7 17 13 21 15 4 1 8 8 9 14 1 8 -26 21 -64 32 -100 30 -1012
265 -1127 290 -55 13 -147 36 -205 51 -58 16 -143 39 -190 51 -47 11 -164 43
-260 71 -96 28 -233 66 -305 84 -71 19 -138 37 -148 40 -16 5 -18 -1 -15 -57z"/>
<path d="M5900 3446 l0 -93 53 -11 c28 -6 60 -14 70 -17 15 -7 17 1 17 88 l0
95 -65 16 c-35 9 -67 16 -70 16 -3 0 -5 -42 -5 -94z"/>
<path d="M6070 3406 l0 -93 61 -12 c34 -7 67 -15 75 -18 11 -4 14 13 14 90 l0
95 -65 16 c-35 9 -69 16 -75 16 -6 0 -10 -35 -10 -94z"/>
<path d="M8585 3435 c-27 -7 -161 -45 -296 -85 l-247 -73 2 -28 c0 -22 5 -28
16 -24 11 4 10 1 -2 -9 -10 -7 -18 -23 -18 -35 0 -20 4 -22 33 -16 46 10 50
14 43 46 -3 16 -2 29 2 29 4 0 9 -12 10 -27 1 -14 4 -28 5 -30 4 -4 148 38
353 103 l142 44 5 58 c2 31 4 57 3 58 0 0 -23 -5 -51 -11z"/>
<path d="M4490 3390 c-41 -10 -194 -44 -340 -76 -146 -31 -268 -60 -272 -63
-5 -4 52 -27 126 -51 l134 -43 78 17 c214 47 667 164 654 169 -52 19 -216 58
-257 62 -28 3 -79 -3 -123 -15z"/>
<path d="M6595 3361 l-100 -27 0 -63 0 -64 105 -24 c58 -13 121 -26 140 -29
19 -3 38 -8 42 -10 3 -2 19 1 35 8 15 6 32 10 36 9 4 -1 34 6 65 16 54 16 55
17 27 23 -16 3 -33 2 -36 -3 -4 -5 -11 -1 -17 8 -6 12 -17 16 -31 12 -11 -3
-19 -1 -15 4 3 5 -8 9 -25 9 -16 0 -31 -3 -34 -7 -2 -5 -3 -3 -1 3 3 14 -40
24 -100 24 -33 1 -37 3 -23 11 9 5 22 7 27 4 6 -4 10 8 11 27 0 18 2 48 5 66
2 17 0 31 -4 31 -4 -1 -52 -13 -107 -28z"/>
<path d="M6250 3327 c0 -54 1 -56 33 -62 17 -4 61 -15 96 -26 35 -10 65 -19
67 -19 2 0 4 26 4 58 l0 57 -77 17 c-43 9 -88 20 -100 24 -22 6 -23 4 -23 -49z"/>
<path d="M7058 3305 c-2 -3 -20 -7 -39 -10 -59 -9 -187 -53 -159 -54 14 -1 53
-10 86 -20 60 -19 63 -19 134 -1 39 10 80 26 90 35 20 18 40 13 40 -10 0 -8 8
-19 18 -24 9 -6 14 -11 9 -11 -4 0 5 -19 20 -41 l27 -41 8 27 c13 49 -63 120
-137 128 -22 3 -52 9 -66 15 -15 6 -29 9 -31 7z"/>
<path d="M5005 3254 c-27 -7 -189 -48 -360 -89 -296 -72 -369 -93 -335 -94 8
0 82 -22 163 -48 l148 -47 97 26 c191 50 638 166 667 173 25 6 5 14 -125 51
-168 48 -181 49 -255 28z"/>
<path d="M7808 3212 c-48 -14 -85 -29 -82 -33 3 -5 -1 -6 -8 -4 -8 3 -31 0
-51 -8 l-38 -12 43 -51 43 -50 88 26 c49 14 92 32 96 39 11 16 14 121 4 120
-5 -1 -47 -13 -95 -27z"/>
<path d="M6330 3186 l0 -42 105 -26 105 -25 0 43 0 43 -52 11 c-29 6 -77 17
-105 24 l-53 14 0 -42z"/>
<path d="M3330 3130 c-168 -38 -365 -82 -438 -97 l-132 -27 62 -24 c35 -13
100 -37 146 -53 l82 -29 298 70 c163 38 368 86 454 107 l156 37 -131 43 c-73
23 -145 42 -162 42 -16 0 -167 -32 -335 -69z"/>
<path d="M5149 3091 c-142 -38 -317 -84 -389 -102 l-133 -34 7 -279 c3 -154 8
-282 10 -284 3 -2 114 28 248 66 394 114 486 141 513 154 l25 11 0 269 c0 208
-3 268 -12 267 -7 0 -128 -31 -269 -68z m-181 -328 c3 -97 11 -90 -142 -128
-75 -19 -110 -24 -115 -17 -4 6 -8 47 -9 91 l-3 80 68 20 c107 31 146 39 173
38 24 -2 25 -4 28 -84z"/>
<path d="M8080 3140 c-21 -5 -25 -12 -28 -48 -2 -29 1 -42 10 -42 10 0 9 -3
-2 -10 -10 -6 -15 -36 -18 -111 -5 -105 0 -118 39 -119 15 0 18 18 24 123 4
67 5 142 3 168 -3 42 -4 45 -28 39z"/>
<path d="M7958 3107 l-38 -11 0 -123 c0 -137 -4 -129 75 -149 l25 -6 0 151 c0
115 -3 151 -12 150 -7 -1 -30 -6 -50 -12z"/>
<path d="M3880 3074 c-30 -8 -84 -21 -120 -29 -36 -8 -198 -46 -360 -85 -162
-38 -305 -72 -317 -75 -21 -5 -23 -11 -23 -64 0 -59 0 -59 38 -74 l37 -15 9
39 c8 34 14 40 45 49 44 12 464 115 653 161 l137 33 -3 31 c-2 16 -4 33 -5 38
-1 10 -26 7 -91 -9z"/>
<path d="M7808 3063 l-87 -25 50 -63 c29 -38 49 -73 49 -88 0 -20 6 -27 31
-32 17 -4 32 -5 33 -3 4 4 16 238 13 237 -1 0 -41 -12 -89 -26z"/>
<path d="M5480 2893 l0 -188 45 -16 45 -17 0 173 c0 129 -3 175 -12 178 -10 4
-10 6 0 6 23 2 12 29 -15 35 -16 4 -36 9 -45 12 -17 5 -18 -8 -18 -183z"/>
<path d="M5613 2855 c0 -102 2 -185 5 -185 4 0 28 7 53 16 l46 17 7 89 c4 49
4 93 1 99 -4 5 -19 8 -33 7 -27 -3 -27 -3 -27 65 0 44 -4 67 -12 67 -6 0 -17
2 -25 5 -10 4 -13 -30 -15 -180z"/>
<path d="M3875 2970 c-126 -32 -328 -81 -449 -110 l-218 -52 148 -60 c82 -33
156 -60 164 -59 8 0 218 54 466 119 l452 118 -157 52 c-86 29 -161 51 -166 51
-6 -1 -113 -27 -240 -59z"/>
<path d="M5741 2511 l-2 -490 28 -14 c15 -8 38 -18 50 -21 l22 -7 1 499 0 500
-31 11 c-71 25 -65 65 -68 -478z"/>
<path d="M7057 2966 l-98 -31 1 -35 c1 -19 -1 -50 -4 -67 -6 -38 -2 -39 69
-14 l50 18 3 59 c2 32 8 64 13 69 7 7 10 2 7 -15 -3 -22 0 -25 22 -22 14 2 21
0 17 -5 -5 -4 -13 -9 -18 -9 -5 -1 -14 -2 -19 -3 -6 0 -8 -12 -4 -28 9 -37 8
-36 42 -28 28 6 30 9 34 61 l3 55 -27 -7 c-38 -8 -35 4 5 21 54 24 8 15 -96
-19z"/>
<path d="M4430 2966 c0 -9 12 -16 33 -18 28 -3 33 -8 41 -40 5 -21 15 -38 23
-38 7 0 13 -4 13 -10 0 -5 -7 -10 -15 -10 -12 0 -15 -17 -15 -97 0 -67 3 -93
10 -83 8 12 10 9 10 -12 0 -19 -5 -28 -16 -28 -11 0 -14 -5 -10 -16 3 -9 6
-56 6 -104 0 -78 2 -91 19 -100 11 -5 27 -7 35 -4 14 6 16 36 14 266 l-3 260
-45 18 c-74 28 -100 32 -100 16z"/>
<path d="M5860 2475 c0 -334 3 -495 10 -495 6 0 26 7 45 14 l35 15 1 308 c1
169 2 381 4 470 l2 163 -36 10 c-20 5 -42 10 -48 10 -10 0 -13 -106 -13 -495z"/>
<path d="M2365 2914 c-82 -19 -306 -69 -497 -112 -192 -42 -348 -79 -348 -82
1 -3 58 -32 127 -64 l127 -59 131 31 c199 48 720 172 815 194 80 18 99 24 89
31 -24 16 -250 97 -269 96 -14 -1 -92 -16 -175 -35z"/>
<path d="M5980 2870 l0 -72 28 6 c83 20 222 61 222 66 0 5 -86 30 -227 66 -22
6 -23 4 -23 -66z"/>
<path d="M7220 2790 l0 -149 46 14 c47 14 67 25 46 25 -8 0 -12 25 -12 78 0
72 -2 81 -35 130 -20 28 -38 52 -40 52 -3 0 -5 -67 -5 -150z"/>
<path d="M6873 2909 l-63 -20 0 -65 c0 -48 3 -65 13 -62 7 3 13 24 13 52 3 65
14 72 14 8 0 -57 -1 -56 53 -41 31 8 37 14 35 32 -2 12 -7 26 -13 30 -6 6 -6
10 3 14 15 6 16 33 1 33 -6 0 -3 7 5 16 30 30 24 30 -61 3z"/>
<path d="M4310 2869 c-74 -21 -281 -75 -459 -120 l-324 -83 7 -165 c3 -92 7
-226 7 -298 1 -73 4 -133 6 -133 10 0 248 65 368 100 443 130 521 154 533 163
13 11 15 245 3 462 l-6 111 -135 -37z m-391 -376 c-2 -101 -4 -109 -37 -122
-51 -20 -235 -62 -249 -57 -11 4 -13 26 -11 97 l3 92 49 14 c27 8 60 13 73 10
13 -2 23 -1 23 4 0 10 86 37 123 38 l28 1 -2 -77z"/>
<path d="M6330 2786 c0 -33 -3 -181 -7 -327 l-6 -266 47 -16 46 -16 0 82 c0
45 3 195 7 332 l6 251 -46 11 -47 10 0 -61z"/>
<path d="M7123 2829 l-33 -10 0 -113 c0 -104 2 -114 18 -109 50 13 56 28 60
138 2 58 0 105 -4 104 -5 0 -24 -5 -41 -10z"/>
<path d="M2580 2768 c-135 -33 -366 -90 -514 -126 l-269 -67 2 -125 c1 -69 4
-141 6 -160 2 -19 6 -100 10 -180 4 -80 8 -146 9 -148 2 -1 17 3 34 9 l30 10
-4 167 c-2 92 -6 206 -8 254 -4 78 -3 89 14 98 18 10 827 212 901 225 33 6 37
11 43 43 8 49 7 62 -1 61 -5 -1 -118 -28 -253 -61z"/>
<path d="M6447 2813 c-3 -5 -6 -242 -8 -528 l-4 -519 48 -18 47 -18 1 23 c2
34 -2 52 -12 55 -5 2 -9 8 -9 13 0 6 5 7 10 4 6 -3 12 0 14 7 3 7 6 226 9 485
l4 473 -41 11 c-23 6 -44 13 -48 15 -4 2 -9 1 -11 -3z"/>
<path d="M7008 2793 l-48 -14 0 -140 c0 -91 4 -138 10 -134 6 3 10 2 10 -3 0
-10 16 -18 60 -32 l26 -7 3 173 c1 96 -1 174 -6 173 -4 -1 -29 -8 -55 -16z"/>
<path d="M6170 2755 c-198 -58 -195 -56 -196 -99 -1 -23 3 -35 10 -33 6 2 82
26 169 52 l157 48 0 33 c0 21 -5 34 -12 34 -7 -1 -65 -16 -128 -35z"/>
<path d="M6570 2618 c0 -90 -3 -326 -6 -525 l-6 -363 46 17 46 17 1 161 c0 88
2 311 5 496 l6 337 -33 11 c-61 21 -59 26 -59 -151z"/>
<path d="M2930 2744 c-51 -16 -235 -62 -660 -164 -162 -39 -303 -73 -313 -76
-12 -4 18 -23 95 -58 62 -29 129 -61 150 -71 l36 -18 269 71 c147 39 388 102
535 139 147 37 264 70 260 74 -10 7 -310 119 -320 118 -4 0 -27 -7 -52 -15z"/>
<path d="M6876 2753 c-15 -4 -17 -12 -13 -43 l5 -39 -60 -20 c-43 -15 -66 -18
-78 -11 -47 25 -50 18 -50 -111 0 -92 3 -120 13 -116 6 3 58 20 115 38 l102
32 0 47 c0 26 3 88 6 138 7 97 8 97 -40 85z"/>
<path d="M3330 2675 c0 -8 5 -15 11 -15 5 0 7 5 4 10 -3 6 -2 10 3 10 12 0 22
-24 22 -51 0 -12 10 -23 25 -29 32 -12 36 -34 33 -165 -3 -107 -4 -110 -25
-108 -21 3 -22 -1 -19 -40 2 -23 4 -70 5 -104 1 -63 1 -63 41 -83 22 -11 40
-17 40 -13 0 5 5 1 11 -7 7 -11 9 15 5 90 -3 58 -7 187 -10 288 -2 101 -6 185
-8 186 -12 8 -113 46 -124 46 -8 0 -14 -7 -14 -15z"/>
<path d="M1492 2623 c3 -31 8 -38 36 -48 l34 -11 5 -137 5 -138 -36 15 -36 15
0 -104 0 -105 52 -26 51 -26 -7 79 c-3 43 -9 148 -12 233 -8 251 -10 259 -50
276 -45 19 -46 19 -42 -23z"/>
<path d="M5645 2628 c-38 -11 -95 -28 -125 -38 -89 -31 -370 -115 -652 -195
-145 -42 -299 -87 -343 -101 -44 -14 -123 -38 -175 -54 -264 -78 -573 -167
-725 -210 -93 -26 -280 -81 -415 -120 -556 -164 -898 -263 -942 -274 -23 -5
-28 -12 -28 -35 0 -60 4 -61 83 -39 118 32 396 114 657 193 240 72 633 189
698 207 20 6 30 13 26 20 -5 8 -1 9 10 5 19 -7 141 26 546 148 135 41 337 102
450 135 113 34 241 73 285 86 44 14 157 48 250 76 270 79 459 139 468 148 5 4
7 21 5 37 l-3 30 -70 -19z"/>
<path d="M3279 2606 c-4 -4 -203 -56 -679 -177 -129 -33 -259 -67 -289 -76
l-54 -15 7 -312 c4 -171 11 -315 16 -320 4 -4 30 -1 57 8 26 8 118 35 203 60
374 107 718 208 759 223 l44 16 -6 196 c-4 108 -7 242 -7 299 0 100 0 102 -23
102 -13 0 -26 -2 -28 -4z m-581 -453 l-3 -106 -38 -11 c-22 -6 -37 -13 -34
-16 3 -3 -14 -6 -38 -6 l-44 -1 -3 104 -3 104 50 14 c58 16 85 22 103 24 10 1
12 -24 10 -106z m-174 41 c3 -9 6 -55 6 -103 l0 -88 -71 -21 c-39 -11 -78 -18
-85 -15 -11 4 -14 30 -14 107 l0 102 58 16 c76 21 99 21 106 2z"/>
<path d="M2618 2212 l-48 -16 0 -76 0 -77 54 15 53 15 -1 78 c0 44 -3 79 -6
78 -3 0 -26 -8 -52 -17z"/>
<path d="M2433 2163 l-53 -16 0 -77 0 -78 63 16 62 17 -1 45 c-1 86 -4 110
-11 109 -5 0 -32 -8 -60 -16z"/>
<path d="M1622 2555 c0 -43 2 -46 8 -20 7 28 8 29 9 5 1 -20 9 -29 35 -38 32
-12 33 -15 40 -74 3 -33 6 -94 6 -134 0 -79 -7 -87 -46 -59 -21 14 -21 13 -27
-40 -3 -30 -3 -79 0 -108 5 -52 7 -54 56 -82 l50 -28 -6 169 c-4 93 -10 222
-14 287 l-6 118 -40 20 c-30 16 -42 18 -47 8 -6 -8 -9 -6 -13 7 -2 10 -5 -3
-5 -31z"/>
<path d="M6815 2437 c-124 -41 -130 -44 -133 -71 -3 -21 0 -27 10 -24 7 3 84
29 171 58 115 39 153 56 142 63 -9 5 -23 6 -31 3 -8 -3 -14 -1 -14 4 0 14 0
14 -145 -33z"/>
<path d="M1920 2396 c0 -42 1 -44 36 -50 19 -4 37 -12 39 -19 2 -7 6 -72 8
-145 5 -132 5 -133 -17 -126 -11 3 -29 13 -38 22 -17 14 -18 9 -18 -101 l0
-115 43 -21 c24 -12 47 -21 51 -21 9 0 0 448 -10 533 -5 43 -10 49 -45 67 -21
11 -41 20 -44 20 -3 0 -5 -20 -5 -44z"/>
<path d="M5295 2427 l-30 -12 -1 -112 c-2 -122 -7 -115 59 -91 25 10 27 14 29
77 0 36 2 85 4 109 3 47 -5 51 -61 29z"/>
<path d="M6995 2421 c-19 -4 -30 -13 -30 -23 0 -10 -6 -23 -14 -30 -11 -11
-13 -9 -9 14 4 19 1 25 -9 21 -7 -3 -13 -9 -13 -13 0 -4 -6 -7 -13 -6 -7 0
-61 -15 -120 -34 -107 -35 -107 -35 -107 -67 0 -18 3 -33 8 -33 20 1 164 58
156 62 -5 3 -3 3 5 1 7 -2 51 9 97 24 83 27 84 28 84 60 0 18 -1 32 -2 32 -2
-1 -16 -4 -33 -8z"/>
<path d="M7051 2389 c-1 -46 -2 -47 -38 -53 -64 -10 -64 -8 -70 -183 l-6 -159
44 -17 c25 -9 50 -17 56 -17 11 0 30 435 20 461 -3 8 -6 -7 -6 -32z"/>
<path d="M5193 2398 c-26 -9 -33 -17 -35 -39 -1 -16 -3 -44 -4 -61 -4 -57 5
-75 46 -91 45 -17 48 -14 45 53 -1 25 -3 69 -4 98 0 28 -4 52 -8 51 -5 -1 -23
-6 -40 -11z"/>
<path d="M2085 2324 c1 -31 7 -39 37 -55 l35 -18 6 -92 c8 -112 9 -189 2 -189
-4 0 -19 7 -35 15 l-30 16 0 -110 0 -109 56 -31 56 -30 -6 102 c-3 56 -8 172
-11 257 -9 242 -8 238 -62 261 -24 10 -46 19 -47 19 -2 0 -2 -16 -1 -36z"/>
<path d="M7078 2189 c-2 -73 1 -134 7 -140 6 -6 6 -9 0 -9 -6 0 -3 -5 5 -10
13 -8 12 -10 -2 -10 -13 0 -18 -8 -18 -30 0 -34 9 -36 50 -15 l29 15 3 147 c2
82 1 151 -3 156 -3 4 -19 11 -37 16 l-31 9 -3 -129z"/>
<path d="M4421 2299 c-51 -20 -848 -249 -868 -249 -7 0 -13 -4 -13 -10 0 -5 4
-10 8 -10 8 0 621 176 805 232 59 17 107 36 107 40 0 10 -8 9 -39 -3z"/>
<path d="M3328 1984 c-4 -3 -37 -14 -75 -24 -74 -19 -529 -151 -798 -231 -158
-47 -213 -69 -172 -69 9 0 101 25 204 56 103 30 334 98 513 150 304 89 351
106 339 119 -3 3 -8 2 -11 -1z"/>
<path d="M2448 1582 l-58 -16 0 -63 c0 -35 3 -63 8 -63 4 0 34 9 67 19 42 13
60 24 59 35 0 9 -1 36 -2 61 -1 25 -5 45 -9 44 -5 0 -34 -8 -65 -17z"/>
</g>
</svg>
